# xmcd
#
# Track frame offsets:
#	150
#	28690
#	54890
#	58797
#	80487
#	113065
#	143875
#	162075
#	176725
#	185527
#	194717
#	204600
#	230382
#	272157
#
# Disc length: 3994 seconds
#
# Revision: 1
# Processed by: cddbd v1.5.1PL0 Copyright (c) Steve Scherf et al.
# Submitted via: CDex 1.50Beta5
#
DISCID=c80f980e
DTITLE=Missile Girl Scoot - MAKING THE ROAD TO HEAVEN -MISSILE GIRL SCOOT TOUR Disc 2
DYEAR=2003
DGENRE=Rock
TTITLE0=Innocent Soul
TTITLE1=Trailing Note,A
TTITLE2=〜MOTH〜
TTITLE3=ERASE
TTITLE4=EVERYTIME IT RAINS
TTITLE5=Mind Pain
TTITLE6=GAZE INTO SPACE
TTITLE7=411
TTITLE8=Without You
TTITLE9=ROCK’N ROLL★HIGH SCHOOL
TTITLE10=NEVER ENDING STORY,THE
TTITLE11=ONE TRACK MIND
TTITLE12=HAPPY&SONG
TTITLE13=BIG MOUTH-’90’s brassy version-
EXTD=
EXTT0=
EXTT1=
EXTT2=
EXTT3=
EXTT4=
EXTT5=
EXTT6=
EXTT7=
EXTT8=
EXTT9=
EXTT10=
EXTT11=
EXTT12=
EXTT13=
PLAYORDER=
